<?xml version="1.0" standalone="no"?><!DOCTYPE svg PUBLIC "-//W3C//DTD SVG 1.1//EN" "http://www.w3.org/Graphics/SVG/1.1/DTD/svg11.dtd"><svg t="1537316072989" class="icon" style="" viewBox="0 0 1024 1024" version="1.1" xmlns="http://www.w3.org/2000/svg" p-id="1440" xmlns:xlink="http://www.w3.org/1999/xlink" width="200" height="200"><defs><style type="text/css"></style></defs><path d="M41.9 979.2h274.4V737.1H41.9v242.1z m96.9-177.5h80.7-80.7zM703.7 979.2H978V591.8H703.7v387.4z m177.5-322.8h-64.6 64.6zM316.3 591.8H42v145.3h274.4V591.8z m-177.5 64.6h80.7-80.7z" fill="#67C1B2" p-id="1441"></path><path d="M300.2 43.1H42v193.7h258.2V43.1zM138.8 172.2h64.6-64.6zM978 43.1H719.8v193.7H978V43.1zM816.6 172.2h64.6-64.6z" fill="#EEE3D2" p-id="1442"></path><path d="M445.4 43.1h129.1v177.5H445.4z" fill="#58B09A" p-id="1443"></path><path d="M316.3 591.8v387.4h387.3V591.8H316.3z m258.2 48.5v32.3-32.3z m-48.4 16.1h-32.3 32.3z m-64.5 0h-32.3 32.3z m-64.6 0h-32.3H397z m226 258.2H397V721h226v193.6z m16.1-242.1v-32.3 32.3z" fill="#EDB52B" p-id="1444"></path><path d="M397 914.6h226V720.9H397v193.7z m177.5-129.1H445.4h129.1z" fill="#EEE3D2" p-id="1445"></path><path d="M58.1 478.9l48.4 48.4 48.4-48.4-48.4-48.5zM203.3 527.3l48.5-48.4-48.5-48.5-48.4 48.5z" fill="#58B09A" p-id="1446"></path><path d="M816.6 446.6c-17.8 0-32.3 14.5-32.3 32.3 0 17.8 14.4 32.3 32.3 32.3 17.8 0 32.3-14.5 32.3-32.3 0-17.9-14.4-32.3-32.3-32.3M881.2 446.6c-17.8 0-32.3 14.5-32.3 32.3 0 17.8 14.4 32.3 32.3 32.3 17.8 0 32.3-14.5 32.3-32.3 0-17.9-14.5-32.3-32.3-32.3M913.5 478.9c0 17.8 14.5 32.3 32.3 32.3 17.8 0 32.3-14.5 32.3-32.3 0-17.8-14.5-32.3-32.3-32.3-17.9 0-32.3 14.4-32.3 32.3" fill="#EDB52B" p-id="1447"></path><path d="M687.5 349.8l-96.8-129.1H429.3l-96.8 129.1h355z m-129.1-64.6h-32.3 32.3z m-96.8 0h32.3-32.3z" fill="#67C1B2" p-id="1448"></path><path d="M978 995.3H41.9c-8.9 0-16.1-7.2-16.1-16.1V591.8c0-8.9 7.2-16.1 16.1-16.1H978c8.9 0 16.1 7.2 16.1 16.1v387.3c0.1 9-7.2 16.2-16.1 16.2zM58.1 963h903.8V608H58.1v355zM300.2 252.9H42c-8.9 0-16.1-7.2-16.1-16.1V43.1C25.8 34.2 33 27 42 27h258.2c8.9 0 16.1 7.2 16.1 16.1v193.7c0 8.9-7.2 16.1-16.1 16.1zM58.1 220.6H284V59.2H58.1v161.4zM978 252.9H719.8c-8.9 0-16.1-7.2-16.1-16.1V43.1c0-8.9 7.2-16.1 16.1-16.1H978c8.9 0 16.1 7.2 16.1 16.1v193.7c0.1 8.9-7.2 16.1-16.1 16.1z m-242.1-32.3h225.9V59.2H735.9v161.4zM574.5 236.8H445.4c-8.9 0-16.1-7.2-16.1-16.1V43.1c0-8.9 7.2-16.1 16.1-16.1h129.1c8.9 0 16.1 7.2 16.1 16.1v177.5c0.1 9-7.1 16.2-16.1 16.2z m-112.9-32.3h96.8V59.2h-96.8v145.3z" fill="#353535" p-id="1449"></path><path d="M138.8 156.1h64.6v32.3h-64.6zM816.6 156.1h64.6v32.3h-64.6zM461.6 269.1h32.3v32.3h-32.3zM526.1 269.1h32.3v32.3h-32.3zM703.7 995.3H316.3c-8.9 0-16.1-7.2-16.1-16.1V591.8c0-8.9 7.2-16.1 16.1-16.1h387.3c8.9 0 16.1 7.2 16.1 16.1v387.3c0.1 9-7.1 16.2-16 16.2zM332.5 963h355V608h-355v355z" fill="#353535" p-id="1450"></path><path d="M623 930.8H397c-8.9 0-16.1-7.2-16.1-16.1V720.9c0-8.9 7.2-16.1 16.1-16.1h226c8.9 0 16.1 7.2 16.1 16.1v193.7c0 8.9-7.2 16.2-16.1 16.2z m-209.8-32.3h193.7V737.1H413.2v161.4zM364.7 640.3H397v32.3h-32.3zM429.3 640.3h32.3v32.3h-32.3zM493.8 640.3h32.3v32.3h-32.3zM558.4 640.3h32.3v32.3h-32.3zM623 640.3h32.3v32.3H623zM816.6 640.3h64.6v32.3h-64.6zM41.9 720.9h274.4v32.3H41.9zM138.8 640.3h80.7v32.3h-80.7zM138.8 785.5h80.7v32.3h-80.7z" fill="#353535" p-id="1451"></path><path d="M445.4 769.4h129.1v32.3H445.4zM768.2 349.7h226V382h-226z" fill="#353535" p-id="1452"></path><path d="M800.5 365.9h32.3v80.7h-32.3zM865.1 365.9h32.3v80.7h-32.3zM58.1 349.7h193.7V382H58.1zM106.5 543.4c-4.3 0-8.4-1.7-11.4-4.7l-48.4-48.4c-6.3-6.3-6.3-16.5 0-22.8L95.1 419c6.3-6.3 16.5-6.3 22.8 0l48.4 48.4c6.3 6.3 6.3 16.5 0 22.8l-48.4 48.4c-3 3.1-7.1 4.8-11.4 4.8z m-25.6-64.5l25.6 25.6 25.6-25.6-25.6-25.6-25.6 25.6z" fill="#353535" p-id="1453"></path><path d="M90.4 365.9h32.3v64.6H90.4zM203.3 543.4c-4.3 0-8.4-1.7-11.4-4.7l-48.4-48.4c-6.3-6.3-6.3-16.5 0-22.8l48.4-48.4c6.3-6.3 16.5-6.3 22.8 0l48.4 48.4c3 3 4.7 7.1 4.7 11.4 0 4.3-1.7 8.4-4.7 11.4l-48.4 48.4c-3 3-7.1 4.7-11.4 4.7z m-25.6-64.5l25.6 25.6 25.6-25.6-25.6-25.6-25.6 25.6z" fill="#353535" p-id="1454"></path><path d="M187.2 365.9h32.3v64.6h-32.3zM816.6 527.3c-26.7 0-48.4-21.7-48.4-48.4s21.7-48.4 48.4-48.4 48.4 21.7 48.4 48.4c0.1 26.7-21.7 48.4-48.4 48.4z m0-64.6c-8.9 0-16.1 7.2-16.1 16.1 0 8.9 7.2 16.1 16.1 16.1 8.9 0 16.1-7.2 16.1-16.1 0.1-8.8-7.2-16.1-16.1-16.1z" fill="#353535" p-id="1455"></path><path d="M881.2 527.3c-26.7 0-48.4-21.7-48.4-48.4s21.7-48.4 48.4-48.4 48.4 21.7 48.4 48.4-21.7 48.4-48.4 48.4z m0-64.6c-8.9 0-16.1 7.2-16.1 16.1 0 8.9 7.2 16.1 16.1 16.1s16.1-7.2 16.1-16.1c0-8.8-7.2-16.1-16.1-16.1zM929.6 365.9h32.3v80.7h-32.3z" fill="#353535" p-id="1456"></path><path d="M945.7 527.3c-26.7 0-48.4-21.7-48.4-48.4s21.7-48.4 48.4-48.4 48.4 21.7 48.4 48.4c0.1 26.7-21.7 48.4-48.4 48.4z m0-64.6c-8.9 0-16.1 7.2-16.1 16.1 0 8.9 7.2 16.1 16.1 16.1 8.9 0 16.1-7.2 16.1-16.1 0.1-8.8-7.2-16.1-16.1-16.1zM687.5 365.9h-355c-6.1 0-11.7-3.5-14.4-8.9-2.7-5.5-2.1-12 1.5-16.9L416.4 211c3.1-4.1 7.8-6.5 12.9-6.5h161.4c5.1 0 9.9 2.4 12.9 6.5l96.8 129.1c3.7 4.9 4.3 11.4 1.5 16.9-2.7 5.4-8.3 8.9-14.4 8.9z m-322.8-32.3h290.5l-72.6-96.8H437.4l-72.7 96.8z" fill="#353535" p-id="1457"></path></svg>