<?xml version="1.0" encoding="utf-8"?>
<!-- Svg Vector Icons : http://www.sfont.cn -->
<!DOCTYPE svg PUBLIC "-//W3C//DTD SVG 1.1//EN" "http://www.w3.org/Graphics/SVG/1.1/DTD/svg11.dtd">
<svg version="1.1" xmlns="http://www.w3.org/2000/svg" xmlns:xlink="http://www.w3.org/1999/xlink" x="0px" y="0px" viewBox="0 0 1000 1000" enable-background="new 0 0 1000 1000" xml:space="preserve">
<metadata> Svg Vector Icons : http://www.sfont.cn </metadata>
<g><path d="M500,990C229.4,990,10,770.6,10,500C10,229.4,229.4,10,500,10c270.6,0,490,219.4,490,490C990,770.6,770.6,990,500,990z M500,63C258.7,63,63,258.7,63,500c0,241.3,195.7,437,437,437c241.4,0,437-195.7,437-437C937,258.7,741.4,63,500,63z M670.6,598.2c-14.6,0-26.5-11.8-26.5-26.5l0.9-180.2L320.5,716.1c-10.4,10.4-27.1,10.4-37.5,0c-10.4-10.4-10.4-27.1,0-37.5l323.1-323.1l-177.2,0c-14.5-0.1-26.3-11.9-26.4-26.4c-0.1-14.5,11.6-26.1,26-26l235.1,0.1c2.5-0.9,5.2-1.6,8.2-1.6c14.6,0,26.5,11.9,26.5,26.5l-1.2,243.6C697.1,586.3,685.2,598.2,670.6,598.2z"/></g>
</svg>