<?xml version="1.0" encoding="utf-8"?>
<!-- Svg Vector Icons : http://www.sfont.cn -->
<!DOCTYPE svg PUBLIC "-//W3C//DTD SVG 1.1//EN" "http://www.w3.org/Graphics/SVG/1.1/DTD/svg11.dtd">
<svg version="1.1" xmlns="http://www.w3.org/2000/svg" xmlns:xlink="http://www.w3.org/1999/xlink" x="0px" y="0px" viewBox="0 0 1000 1000" enable-background="new 0 0 1000 1000" xml:space="preserve">
<metadata> Svg Vector Icons : http://www.sfont.cn </metadata>
<g><g transform="translate(0.000000,246.000000) scale(0.100000,-0.100000)"><path d="M4527.7,2225.7C2450.1,2003.5,785.7,608.1,255.6-1352.5c-343-1274.6-113-2666.1,631.5-3788.7c276.8-424.9,908.2-1060.2,1317.5-1337c1282.4-857.5,2900-1083.6,4346.1-600.3c2249.1,748.4,3640.6,2939,3297.6,5203.7c-105.3,705.5-366.4,1375.9-771.8,1984c-272.9,413.2-986.2,1099.2-1403.2,1360.3C6730,2050.3,5548.9,2334.8,4527.7,2225.7z M5490.4,1586.4C7369.2,1379.9,8912.8-66.2,9205.1-1890.4c78-475.5,31.2-1329.2-93.5-1754C8756.8-4841.1,7961.7-5761,6815.7-6302.8c-997.8-471.7-2171.1-530.1-3243-163.7c-1017.3,350.8-1913.9,1134.3-2397.2,2093.2c-588.6,1169.4-573,2596,42.9,3738c732.8,1364.2,2136,2217.9,3710.8,2260.8C5030.5,1625.4,5283.9,1609.8,5490.4,1586.4z"/><path d="M2407.2,144.2l-101.3-78v-2451.7c0-2350.4,3.9-2451.8,74.1-2537.5c74.1-93.5,85.8-93.5,752.3-93.5h674.3l19.5,799.1l19.5,799.1h1149.9h1149.8l19.5-799.1l19.5-799.1l650.9-11.7c639.3-7.8,651-7.8,760.1,85.7l109.1,93.6v2444V39l-109.1,93.5l-109.1,93.6H4999.3C2539.8,226.1,2508.6,226.1,2407.2,144.2z M6624.7-249.4c50.7-50.7,70.2-1251.2,23.4-1372.1c-19.5-54.6-202.7-62.4-1652.7-62.4c-1450,0-1633.2,7.8-1652.7,62.4c-46.8,120.9-27.3,1321.4,23.4,1372.1C3432.4-183.2,6558.5-183.2,6624.7-249.4z"/><path d="M4301.6-4381.2c-27.3-27.3-46.8-159.8-46.8-350.8v-304h428.8h432.7l-11.7,343l-11.7,339.1l-370.3,11.7C4465.3-4334.4,4336.7-4346.1,4301.6-4381.2z"/></g></g>
</svg>