<?xml version="1.0" encoding="utf-8"?>
<!-- Svg Vector Icons : http://www.sfont.cn -->
<!DOCTYPE svg PUBLIC "-//W3C//DTD SVG 1.1//EN" "http://www.w3.org/Graphics/SVG/1.1/DTD/svg11.dtd">
<svg version="1.1" xmlns="http://www.w3.org/2000/svg" xmlns:xlink="http://www.w3.org/1999/xlink" x="0px" y="0px" viewBox="0 0 1000 1000" enable-background="new 0 0 1000 1000" xml:space="preserve">
<metadata> Svg Vector Icons : http://www.sfont.cn </metadata>
<g><g transform="translate(0.000000,511.000000) scale(0.100000,-0.100000)"><path d="M4537.7,4997.3c-947.1-96.6-1851.1-462.3-2586.6-1041.6c-187-145.9-651.3-610.2-797.2-797.2C623.9,2484.6,270.5,1664.9,137,787.6c-49.3-326.7-49.3-1029.3,0-1356c133.5-877.3,484.9-1695,1017-2370.9c158.2-203.4,639-678,836.2-828c706.8-532.1,1462.8-852.6,2331.9-986.2c324.6-49.3,1027.3-49.3,1356,0c864.9,131.5,1623.1,452,2331.9,986.2c211.6,160.3,706.8,655.4,867,867C9411-2191.4,9731.5-1433.3,9863-568.4c49.3,328.7,49.3,1031.4,0,1356c-133.5,869.1-454.1,1625.1-986.2,2331.9c-150,197.2-624.6,678-828,836.2c-669.8,528-1499.8,883.4-2350.4,1012.9C5435.6,5007.6,4790.4,5024,4537.7,4997.3z M5433.5,4444.6c838.2-84.2,1647.7-421.2,2311.3-957.4c240.4-193.1,554.7-519.8,739.6-768.4c1506-2013.4,1004.7-4861-1101.2-6251.9C5694.4-4646.6,3450.9-4437,1984-3025.6c-382.1,367.7-653.3,737.6-887.5,1214.2C120.5,161,769.8,2531.9,2616.8,3752.3C3434.5,4292.6,4453.5,4543.2,5433.5,4444.6z"/><path d="M3420.1,1097.8c-80.1-80.1-80.1-396.5,0-476.7c37-37,88.3-39,1579.9-39c1491.6,0,1542.9,2.1,1579.9,39c80.1,80.1,80.1,396.5,0,476.7c-37,37-94.5,39-1579.9,39C3514.6,1136.9,3457.1,1134.8,3420.1,1097.8z"/><path d="M3434.5-426.6c-102.7-59.6-100.7-456.1,4.1-511.6c24.7-12.3,577.3-20.5,1569.7-20.5c1483.3,0,1534.7,2.1,1571.7,39c80.1,80.1,80.1,396.5,0,476.7c-37,37-94.5,39-1573.8,39C4022.1-404,3457.1-412.2,3434.5-426.6z"/></g></g>
</svg>