<?xml version="1.0" encoding="utf-8"?>
<!-- Svg Vector Icons : http://www.sfont.cn -->
<!DOCTYPE svg PUBLIC "-//W3C//DTD SVG 1.1//EN" "http://www.w3.org/Graphics/SVG/1.1/DTD/svg11.dtd">
<svg version="1.1" xmlns="http://www.w3.org/2000/svg" xmlns:xlink="http://www.w3.org/1999/xlink" x="0px" y="0px" viewBox="0 0 1000 1000" enable-background="new 0 0 1000 1000" xml:space="preserve">
<metadata> Svg Vector Icons : http://www.sfont.cn </metadata>
<g><g transform="translate(0.000000,511.000000) scale(0.100000,-0.100000)"><path d="M4429.7,4986c-895.6-100.7-1852.5-512.4-2551-1097C-350.3,2027.7-508-1309.3,1539.4-3354.4C2027.7-3844.9,2678-4261,3313-4495.2c256.2-92,705.1-205.8,1007.2-251.8c339.4-52.6,1031.3-52.6,1368.5,0c1213.1,188.3,2297,788.3,3059,1697c797,952.5,1189,2086.7,1149.6,3330.5c-32.8,1013.8-352.5,1933.5-956.9,2748c-797.1,1075.1-1988.2,1775.8-3313,1948.8C5349.4,5012.3,4710,5016.6,4429.7,4986z M5491.7,4506.4c825.5-94.2,1613.8-422.6,2266.3-941.6c229.9-183.9,604.3-567.1,772.9-792.7c1324.7-1773.6,1154-4219.5-400.7-5776.3c-681-683.2-1528.4-1110.2-2496.2-1261.2c-313.1-48.2-939.4-48.2-1259.1,0c-1274.4,194.9-2349.5,880.2-3067.7,1953.2C720.4-1431.9,470.8-295.5,630.7,773.1c289,1929.1,1843.7,3457.5,3779.4,3720.2C4683.7,4530.5,5220.2,4537.1,5491.7,4506.4z"/><path d="M4421,2380.3c-205.8-28.5-521.1-135.8-694.1-238.7C3105,1773.8,2752.4,1119,2794,405.2c17.5-289,61.3-457.6,190.5-727c181.7-376.6,466.4-665.7,843-854c304.4-151.1,488.3-192.7,854-192.7c269.3,0,330.6,6.6,503.6,59.1c109.5,32.8,280.3,102.9,381,157.7c100.7,52.6,188.3,96.4,194.9,96.4c8.8,0,258.4-247.4,554-547.4c549.6-556.2,619.7-613.1,770.8-613.1c111.7,0,258.4,87.6,315.3,188.3c56.9,100.7,65.7,265,19.7,354.7c-17.5,32.8-282.4,308.7-591.2,615.3l-556.2,556.2l61.3,111.7c35,61.3,94.1,205.8,133.6,319.7c61.3,179.6,72.3,247.4,81,492.7c6.6,210.2,0,330.6-26.3,455.4c-146.7,718.2-698.5,1294.1-1399.2,1460.5C4904.9,2391.2,4622.4,2408.8,4421,2380.3z M5025.3,1734.3c435.7-129.2,799.2-516.8,893.4-952.5c39.4-177.4,17.5-525.5-39.4-685.4c-137.9-381-431.4-670-814.6-803.6c-173-59.1-536.5-70.1-711.6-21.9c-558.4,155.5-952.5,665.7-952.5,1228.4C3402.8,1351.1,4217.3,1970.8,5025.3,1734.3z"/><path d="M4556.7,1274.5c-98.5-52.5-127-135.8-127-370v-208h-197.1c-232.1,0-332.8-32.8-381-129.2c-56.9-109.5-46-192.7,39.4-278.1l74.4-74.4h232.1h232.1V-10.8c0-229.9,21.9-297.8,107.3-354.7c116.1-74.5,267.1-46,330.6,61.3c35,56.9,43.8,111.7,43.8,295.6v223.3h238.7c238.7,0,240.9,0,306.6,67.9c54.7,52.5,67.9,85.4,67.9,159.8c0,186.1-111.7,254-416,254h-197.1V922c0,247.4-17.5,295.6-131.4,354.7C4701.2,1318.3,4633.3,1316.1,4556.7,1274.5z"/></g></g>
</svg>