<?xml version="1.0" encoding="utf-8"?>
<!-- Svg Vector Icons : http://www.sfont.cn -->
<!DOCTYPE svg PUBLIC "-//W3C//DTD SVG 1.1//EN" "http://www.w3.org/Graphics/SVG/1.1/DTD/svg11.dtd">
<svg version="1.1" xmlns="http://www.w3.org/2000/svg" xmlns:xlink="http://www.w3.org/1999/xlink" x="0px" y="0px" viewBox="0 0 1000 1000" enable-background="new 0 0 1000 1000" xml:space="preserve">
<metadata> Svg Vector Icons : http://www.sfont.cn </metadata>
<g><g transform="translate(0.000000,511.000000) scale(0.100000,-0.100000)"><path d="M4429.4,4983.7c-1903.9-241-3476.9-1524.8-4079.4-3327.9C54.3,770.7,19.3-208.6,253.7-1111.3c488.6-1903.8,2072.5-3330.1,4031.2-3636.8c348.3-52.6,1093.2-52.6,1441.6,0C7330.1-4496.1,8712.5-3484,9409.2-2049C9764.2-1317.2,9900-714.7,9900,109c0,521.4-30.7,788.7-140.2,1218.1c-488.6,1895.1-2072.5,3330.1-4009.3,3634.6C5435,5012.1,4734,5023.1,4429.4,4983.7z M5424.1,4512.6c806.2-81.1,1577.4-379,2225.9-861c992.5-740.5,1632.2-1877.6,1759.2-3124.2c116.1-1158.9-258.5-2353-1027.5-3268.8C7461.6-3841.1,6006.8-4437,4587.2-4294.6C2838.9-4117.1,1362.3-2942.8,812.3-1290.9C343.5,120,595.5,1607.6,1506.8,2814.7c170.9,225.7,567.4,622.2,793.1,793.1C3217.9,4302.3,4324.3,4622.2,5424.1,4512.6z"/><path d="M4282.7,2352.5C3548.7,2196.9,2972.5,1614.1,2825.7,878c-59.2-287-37.3-672.6,50.4-944.2c173.1-530.2,602.5-990.3,1099.8-1180.9c554.3-214.7,1163.3-166.5,1662.9,127.1l118.3,70.1l571.8-569.6c617.8-613.4,620-615.6,823.8-587.1c241,30.7,379,315.5,265.1,536.8c-24.1,43.8-289.2,326.4-589.3,624.4L6282.9-500l83.2,162.1c216.9,433.8,254.2,990.3,98.6,1450.3C6250,1741.2,5708.9,2221,5067,2352.5C4861,2394.1,4477.6,2396.3,4282.7,2352.5z M5119.6,1701.8c501.7-192.8,826-661.6,828.1-1191.8c0-216.9-32.9-359.3-133.6-569.6c-251.9-525.8-861-810.6-1441.6-674.8c-436,103-817.2,479.8-933.3,922.3c-43.8,164.3-41.6,460.1,2.2,631c113.9,440.4,466.7,797.5,913.6,922.4C4541.2,1793.8,4935.5,1774.1,5119.6,1701.8z"/><path d="M3919,639.2c-98.6-78.9-127.1-234.4-61.3-330.8c72.3-103,135.8-111.7,819.4-111.7c703.3,0,758,8.8,819.4,129.3c61.3,116.1,37.2,234.4-61.3,313.3c-41.6,35-116.1,39.4-758,39.4C4035.1,678.6,3960.6,674.3,3919,639.2z"/></g></g>
</svg>